# xmcd CD database file generated by Grip 3.0.5
# 
# Track frame offsets:
#       150
#       12206
#       33689
#       46829
#       59567
#       71680
#       84731
#       96857
#       110730
#       124099
#       138822
#       154524
#       167426
#       180051
#       190614
#       202099
#       214948
#       224921
#       236456
#       246086
#       261826
#       273546
#       282738
#       293169
#       305308
#       316019
#       326802
#       335509
# 
# Disc length: 4645 seconds
# 
# Revision: 1
# Processed by: cddbd v1.5.1PL0 Copyright (c) Steve Scherf et al.
# Submitted via: Grip 3.0.5
# 
DISCID=a812231c
DTITLE=Nat King Cole - Greatest Love Songs CD2
DYEAR=2003
DGENRE=Slow Jam
TTITLE0=Love Is Many Splendored Thing
TTITLE1=A Nightingal Sang In Berkely Square
TTITLE2=Smile
TTITLE3=Love Is Here To Stay
TTITLE4=Autumn Leaves
TTITLE5=There Goes My Heart
TTITLE6=Walkin' My Baby Back Home
TTITLE7=Bleu Gardenia
TTITLE8=Tenderly
TTITLE9=Stardust
TTITLE10=Unforgettable
TTITLE11=Darling Je Vous Aime Beaucoup
TTITLE12=Solamente Una Ves
TTITLE13=Perfidia
TTITLE14=Nocche De Ronda
TTITLE15=Acercate Mas
TTITLE16=El Choclo
TTITLE17=Nadie Me Ama
TTITLE18=Tres Palabras
TTITLE19=Ansiedad
TTITLE20=Las Chapancas
TTITLE21=Guadalajara
TTITLE22=Nao Tengo Lagrimas
TTITLE23=Maria Elena
TTITLE24=El Bodeguero
TTITLE25=Yo Vando Unos Ojos Negros
TTITLE26=Fantastico
TTITLE27=Cachito
EXTD=
EXTT0=
EXTT1=
EXTT2=
EXTT3=
EXTT4=
EXTT5=
EXTT6=
EXTT7=
EXTT8=
EXTT9=
EXTT10=
EXTT11=
EXTT12=
EXTT13=
EXTT14=
EXTT15=
EXTT16=
EXTT17=
EXTT18=
EXTT19=
EXTT20=
EXTT21=
EXTT22=
EXTT23=
EXTT24=
EXTT25=
EXTT26=
EXTT27=
PLAYORDER=
